<?xml version="1.0" ?><!DOCTYPE svg  PUBLIC '-//W3C//DTD SVG 1.1//EN'  'http://www.w3.org/Graphics/SVG/1.1/DTD/svg11.dtd'><svg enable-background="new 0 0 24 24" height="24px" id="Layer_1" version="1.1" viewBox="0 0 24 24" width="24px" xml:space="preserve" xmlns="http://www.w3.org/2000/svg" xmlns:xlink="http://www.w3.org/1999/xlink"><g><g><path d="M9,23.5c-1.6,0-2.8-1.7-3.5-2.8c-2-2.9-3.1-7.7-1.3-10.8c1-1.7,2.7-2.8,4.6-2.8c0,0,0,0,0,0c0.9,0,1.6,0.3,2.3,0.6    C11.5,7.8,11.9,8,12.1,8c0.2,0,0.6-0.2,1-0.3C13.9,7.3,15,6.9,16,7c0.6,0,2.7,0.3,4,2.2c0.1,0.1,0.1,0.2,0.1,0.4    c0,0.1-0.1,0.2-0.2,0.3c-0.5,0.3-2,1.4-1.9,3.5c0,2.6,2.1,3.6,2.4,3.7c0.2,0.1,0.4,0.4,0.3,0.6c-0.1,0.5-0.6,1.7-1.5,3    c-0.8,1.2-1.8,2.7-3.5,2.7c0,0,0,0,0,0c-0.8,0-1.3-0.2-1.8-0.4c-0.5-0.2-0.9-0.4-1.6-0.4c-0.7,0-1.2,0.2-1.6,0.4    C10.3,23.3,9.8,23.5,9,23.5C9.1,23.5,9,23.5,9,23.5z M8.9,8.1c-1.5,0-3,0.9-3.8,2.3c-1.7,3-0.3,7.5,1.3,9.8    C7.2,21.3,8,22.5,9,22.5V23l0.1-0.5c0.5,0,0.9-0.2,1.3-0.4c0.5-0.2,1.1-0.5,2-0.5c0.9,0,1.5,0.3,2,0.5c0.4,0.2,0.8,0.3,1.3,0.3    c1.1,0,1.9-1,2.7-2.3c0.6-0.9,1-1.8,1.2-2.4c-0.8-0.5-2.6-1.8-2.6-4.4c0-2.1,1.2-3.4,2-4C17.9,8.2,16.4,8,16,8c-0.1,0-0.2,0-0.3,0    c-0.7,0-1.5,0.3-2.1,0.6C13,8.8,12.5,9,12.1,9c-0.4,0-0.9-0.2-1.4-0.4C10.1,8.3,9.5,8.1,8.9,8.1z"/></g><g><path d="M12.2,6.6L12.2,6.6c-0.1,0-0.2,0-0.3,0c-0.2,0-0.4-0.2-0.5-0.4c-0.2-1.5,0.5-2.9,1.3-3.8c0.9-1,2.3-1.8,3.5-1.8    c0.3,0,0.5,0.2,0.5,0.4c0.1,1.3-0.3,2.8-1.2,3.9C14.7,5.9,13.4,6.6,12.2,6.6z M15.8,1.6C15,1.8,14.1,2.3,13.5,3    c-0.5,0.6-1,1.6-1.1,2.6c0.8-0.1,1.7-0.6,2.3-1.4C15.4,3.4,15.8,2.5,15.8,1.6z"/></g></g></svg>