<?xml version="1.0" encoding="UTF-8"?>
<svg width="20px" height="23px" viewBox="0 0 20 23" version="1.1" xmlns="http://www.w3.org/2000/svg" xmlns:xlink="http://www.w3.org/1999/xlink">
    <!-- Generator: Sketch 52.6 (67491) - http://www.bohemiancoding.com/sketch -->
    <title>AutonomiQ Logo Shape</title>
    <desc>Created with Sketch.</desc>
    <g id="Symbols" stroke="none" stroke-width="1" fill="none" fill-rule="evenodd">
        <g id="App-Name-1---Cases" transform="translate(-777.000000, -32.000000)">
            <g id="App-Name">
                <g id="AutonomiQ-Logo-Shape" transform="translate(777.000000, 32.000000)">
                    <path d="M11.4514074,16.1861708 C10.9782207,16.3204958 10.5050339,16.3876584 9.96424902,16.3876584 C6.38154921,16.3876584 3.40723238,13.4996695 3.40723238,9.87289256 C3.40723238,7.25355372 4.9619889,4.97002755 7.26032464,3.96258953 L6.17875488,0.738787879 C2.59605506,2.21636363 0.0273268958,5.70881543 0.0273268958,9.87289256 C0.0273268958,15.3130579 4.48880214,19.7457851 9.96424902,19.7457851 C10.8430245,19.7457851 11.7217999,19.6114601 12.5329772,19.4099724 L11.4514074,16.1861708 Z" id="Shape" fill="#1E69CC"></path>
                    <path d="M10.0318471,0 C9.15307171,0 8.34189439,0.134325069 7.59831518,0.335812672 L8.67988494,3.55961432 C9.0854736,3.49245179 9.55866037,3.42528926 10.0318471,3.42528926 C13.6145469,3.42528926 16.5888638,6.31327824 16.5888638,9.94005514 C16.5888638,12.4922314 15.1017054,14.7757576 12.8709677,15.7831956 L13.9525375,19.0069973 C17.4676392,17.5294214 19.9687693,14.0369697 19.9687693,9.94005514 C19.9011712,4.43272728 15.507294,0 10.0318471,0 Z" id="Shape" fill="#F0B637"></path>
                    <polygon id="Shape" fill="#B3B3B7" points="12.6500535 15.5315054 13.1912384 13.9860951 16.7765882 22.9225988 13.6647752 19.4286274 12.920646 20.638079 9.2 11.5"></polygon>
                </g>
            </g>
        </g>
    </g>
</svg>