<svg id="Layer_2" data-name="Layer 2" xmlns="http://www.w3.org/2000/svg" viewBox="0 0 1390 638"><defs><style>.cls-1{fill:#dfefff;}.cls-2{fill:#fff;}.cls-3{fill:#c2dffa;}.cls-4{fill:#f8b500;}</style></defs><title>AutonomiQ_AI_image</title><rect class="cls-1" x="523" y="12" width="461" height="545"/><path d="M1011,743H542V190h469Zm-461-8h453V198H550Z" transform="translate(-23 -182)"/><rect class="cls-2" x="4" y="557" width="1382" height="77"/><path d="M1413,820H23V735H1413ZM31,812H1405V743H31Z" transform="translate(-23 -182)"/><rect class="cls-3" x="1007" y="470" width="324" height="87"/><path d="M1358,743H1026V648h332Zm-324-8h316V656H1034Z" transform="translate(-23 -182)"/><rect class="cls-1" x="1040" y="97" width="118" height="373"/><path d="M1185,656H1059V275h126Zm-118-8h110V283H1067Z" transform="translate(-23 -182)"/><rect class="cls-3" x="293" y="274" width="204" height="198"/><path d="M524,658H312V452H524Zm-204-8H516V460H320Z" transform="translate(-23 -182)"/><rect class="cls-3" x="41" y="472" width="461" height="85"/><path d="M529,743H60V650H529ZM68,735H521V658H68Z" transform="translate(-23 -182)"/><rect class="cls-3" x="984" y="247" width="56" height="53"/><path d="M1067,486h-64V425h64Zm-56-8h48V433h-48Z" transform="translate(-23 -182)"/><rect class="cls-3" x="497" y="356" width="26" height="41"/><path d="M550,583H516V534h34Zm-26-8h18V542H524Z" transform="translate(-23 -182)"/><rect class="cls-3" x="148" y="148" width="91" height="30"/><path d="M266,364H167V326h99Zm-91-8h83V334H175Z" transform="translate(-23 -182)"/><rect class="cls-3" x="1025.5" y="56" width="148" height="41" rx="10.4" ry="10.4"/><path d="M1186.1,283H1058.9a14.42,14.42,0,0,1-14.4-14.4V248.4a14.42,14.42,0,0,1,14.4-14.4h127.2a14.42,14.42,0,0,1,14.4,14.4v20.2A14.42,14.42,0,0,1,1186.1,283Zm-127.2-41a6.41,6.41,0,0,0-6.4,6.4v20.2a6.41,6.41,0,0,0,6.4,6.4h127.2a6.41,6.41,0,0,0,6.4-6.4V248.4a6.41,6.41,0,0,0-6.4-6.4Z" transform="translate(-23 -182)"/><path class="cls-1" d="M126.15,178H260.85A32.15,32.15,0,0,1,293,210.15V472a0,0,0,0,1,0,0H94a0,0,0,0,1,0,0V210.15A32.15,32.15,0,0,1,126.15,178Z"/><path d="M320,658H113V392.15A36.2,36.2,0,0,1,149.15,356h134.7A36.2,36.2,0,0,1,320,392.15Zm-199-8H312V392.15A28.18,28.18,0,0,0,283.85,364H149.15A28.18,28.18,0,0,0,121,392.15Z" transform="translate(-23 -182)"/><path class="cls-3" d="M1254.19,178h.62A62.19,62.19,0,0,1,1317,240.19V470a0,0,0,0,1,0,0H1192a0,0,0,0,1,0,0V240.19A62.19,62.19,0,0,1,1254.19,178Z"/><path d="M1344,656H1211V422.19A66.26,66.26,0,0,1,1277.19,356h.62A66.26,66.26,0,0,1,1344,422.19Zm-125-8h117V422.19A58.25,58.25,0,0,0,1277.81,364h-.62A58.25,58.25,0,0,0,1219,422.19Z" transform="translate(-23 -182)"/><rect class="cls-2" x="153" y="229" width="81" height="193" rx="40.5" ry="40.5"/><path d="M216.5,608A44.55,44.55,0,0,1,172,563.5v-112a44.5,44.5,0,0,1,89,0v112A44.55,44.55,0,0,1,216.5,608Zm0-193A36.54,36.54,0,0,0,180,451.5v112a36.5,36.5,0,0,0,73,0v-112A36.54,36.54,0,0,0,216.5,415Z" transform="translate(-23 -182)"/><rect class="cls-2" x="1038" y="499" width="131" height="31" rx="15.5" ry="15.5"/><path d="M1176.5,716h-100a19.5,19.5,0,0,1,0-39h100a19.5,19.5,0,0,1,0,39Zm-100-31a11.5,11.5,0,0,0,0,23h100a11.5,11.5,0,0,0,0-23Z" transform="translate(-23 -182)"/><rect class="cls-4" x="1210" y="499" width="89" height="31" rx="15.5" ry="15.5"/><path d="M1306.5,716h-58a19.5,19.5,0,0,1,0-39h58a19.5,19.5,0,0,1,0,39Zm-58-31a11.5,11.5,0,0,0,0,23h58a11.5,11.5,0,0,0,0-23Z" transform="translate(-23 -182)"/><circle class="cls-4" cx="109.5" cy="514.5" r="20.5"/><path d="M132.5,721A24.5,24.5,0,1,1,157,696.5,24.53,24.53,0,0,1,132.5,721Zm0-41A16.5,16.5,0,1,0,149,696.5,16.52,16.52,0,0,0,132.5,680Z" transform="translate(-23 -182)"/><circle class="cls-2" cx="189.5" cy="514.5" r="20.5"/><path d="M212.5,721A24.5,24.5,0,1,1,237,696.5,24.53,24.53,0,0,1,212.5,721Zm0-41A16.5,16.5,0,1,0,229,696.5,16.52,16.52,0,0,0,212.5,680Z" transform="translate(-23 -182)"/><circle class="cls-4" cx="269.5" cy="514.5" r="20.5"/><path d="M292.5,721A24.5,24.5,0,1,1,317,696.5,24.53,24.53,0,0,1,292.5,721Zm0-41A16.5,16.5,0,1,0,309,696.5,16.52,16.52,0,0,0,292.5,680Z" transform="translate(-23 -182)"/><circle class="cls-2" cx="349.5" cy="514.5" r="20.5"/><path d="M372.5,721A24.5,24.5,0,1,1,397,696.5,24.53,24.53,0,0,1,372.5,721Zm0-41A16.5,16.5,0,1,0,389,696.5,16.52,16.52,0,0,0,372.5,680Z" transform="translate(-23 -182)"/><circle class="cls-4" cx="429.5" cy="514.5" r="20.5"/><path d="M452.5,721A24.5,24.5,0,1,1,477,696.5,24.53,24.53,0,0,1,452.5,721Zm0-41A16.5,16.5,0,1,0,469,696.5,16.52,16.52,0,0,0,452.5,680Z" transform="translate(-23 -182)"/><rect class="cls-2" x="835" y="167" width="62" height="206"/><path d="M924,559H854V345h70Zm-62-8h54V353H862Z" transform="translate(-23 -182)"/><path class="cls-4" d="M153,296h81a0,0,0,0,1,0,0v85.5A40.5,40.5,0,0,1,193.5,422h0A40.5,40.5,0,0,1,153,381.5V296A0,0,0,0,1,153,296Z"/><path d="M216.5,608A44.55,44.55,0,0,1,172,563.5V474h89v89.5A44.55,44.55,0,0,1,216.5,608ZM180,482v81.5a36.5,36.5,0,0,0,73,0V482Z" transform="translate(-23 -182)"/><path class="cls-2" d="M760.8,349h-77l-75,206h62l9.83-27H764l9.83,27h62ZM699.88,482.5,722.29,412l22.42,70.5Z" transform="translate(-23 -182)"/><path d="M841.49,559H771l-9.83-27H683.43l-9.83,27H603.09L681,345H763.6Zm-64.91-8h53.49L758,353H686.58L614.51,551H668l9.83-27h88.92Zm-26.4-64.5H694.41l27.88-87.7Zm-44.83-8h33.89l-17-53.3Z" transform="translate(-23 -182)"/><path class="cls-3" d="M546,283v57H445.68A51.68,51.68,0,0,1,394,288.32V264.1A21.1,21.1,0,0,0,372.9,243h-107A21.87,21.87,0,0,0,244,264.87V329H191V246A60,60,0,0,1,251,186H403.69A45.32,45.32,0,0,1,449,231.31v29.86A21.83,21.83,0,0,0,470.83,283Z" transform="translate(-23 -182)"/><path d="M550,344H445.68A55.75,55.75,0,0,1,390,288.32V264.1A17.12,17.12,0,0,0,372.9,247h-107A17.89,17.89,0,0,0,248,264.87V333H187V246A64,64,0,0,1,251,182H403.69A49.37,49.37,0,0,1,453,231.31v29.86A17.85,17.85,0,0,0,470.83,279H550ZM265.87,239h107A25.13,25.13,0,0,1,398,264.1v24.22A47.74,47.74,0,0,0,445.68,336H542V287H470.83A25.86,25.86,0,0,1,445,261.17V231.31A41.35,41.35,0,0,0,403.69,190H251A56,56,0,0,0,195,246V325h45V264.87A25.91,25.91,0,0,1,265.87,239Z" transform="translate(-23 -182)"/></svg>