<?xml version="1.0" ?><!DOCTYPE svg  PUBLIC '-//W3C//DTD SVG 1.1//EN'  'http://www.w3.org/Graphics/SVG/1.1/DTD/svg11.dtd'><svg enable-background="new 0 0 24 24" height="24px" id="Layer_1" version="1.1" viewBox="0 0 24 24" width="24px" xml:space="preserve" xmlns="http://www.w3.org/2000/svg" xmlns:xlink="http://www.w3.org/1999/xlink"><g><g><path d="M12,23.5c-0.3,0-0.5,0-0.8,0c-0.1,0-0.3-0.1-0.4-0.2c-0.1,0.1-0.2,0.1-0.4,0.1c-5.7-0.8-10-5.7-10-11.4    c0-2.3,0.7-4.5,1.9-6.4c0.1-0.1,0.2-0.2,0.3-0.2c0-0.1,0-0.3,0.1-0.4C5.1,2.2,8.4,0.5,12,0.5c4.4,0,8.3,2.4,10.3,6.3    c0.1,0.1,0.1,0.3,0,0.4c0.1,0,0.2,0.1,0.3,0.3c0.6,1.4,0.9,2.9,0.9,4.5C23.5,18.3,18.3,23.5,12,23.5z M15.8,8.2    c1,1,1.5,2.4,1.5,3.8c0,1.2-0.4,2.4-1.1,3.3l-4.1,7.2c5.7-0.1,10.4-4.7,10.4-10.5c0-1.3-0.2-2.6-0.7-3.8H15.8z M2.8,6.9    C2,8.4,1.5,10.2,1.5,12c0,5.1,3.8,9.5,8.8,10.4l2.9-5.1c-0.4,0.1-0.8,0.1-1.3,0.1c-2.2,0-4.1-1.3-5-3.3L2.8,6.9z M14.6,15.8    c0,0,0.1,0.1,0.1,0.1c0,0,0,0,0,0l0.2-0.3C14.8,15.7,14.7,15.8,14.6,15.8z M12,8.4c-2,0-3.6,1.6-3.6,3.6s1.6,3.6,3.6,3.6    c2,0,3.6-1.6,3.6-3.6S14,8.4,12,8.4z M7.2,12.4L7.5,13c-0.1-0.2-0.1-0.5-0.1-0.7C7.4,12.4,7.3,12.4,7.2,12.4    C7.2,12.4,7.2,12.4,7.2,12.4z M3.9,5.4l2.9,5.1c0.7-2.2,2.7-3.8,5.1-3.9c0,0,0.1,0,0.1,0h9c-1.9-3.1-5.3-5.1-9-5.1    C8.8,1.5,5.9,2.9,3.9,5.4z"/></g></g></svg>