<?xml version="1.0" encoding="UTF-8"?>
<svg width="65px" height="65px" viewBox="0 0 65 65" version="1.1" xmlns="http://www.w3.org/2000/svg" xmlns:xlink="http://www.w3.org/1999/xlink">
    <!-- Generator: Sketch 53.2 (72643) - https://sketchapp.com -->
    <title>Accounts Icon</title>
    <desc>Created with Sketch.</desc>
    <g id="Admin:-Console-&amp;-Profile" stroke="none" stroke-width="1" fill="none" fill-rule="evenodd">
        <g id="Admin-Console" transform="translate(-1220.000000, -460.000000)" fill="#1C1F20">
            <g id="Main-Panel-Console" transform="translate(240.000000, 95.000000)">
                <g id="Contents-2" transform="translate(20.000000, 325.000000)">
                    <g id="Accounts" transform="translate(855.000000, 22.000000)">
                        <g id="Accounts-Icon" transform="translate(105.000000, 18.000000)">
                            <path d="M63.5,5.8 C63.1,5.8 62.7,6.1 62.7,6.6 L62.7,17.6 C62.7,18 63,18.4 63.5,18.4 C64,18.4 64.3,18.1 64.3,17.6 L64.3,6.6 C64.3,6.1 63.9,5.8 63.5,5.8 Z" id="Path"></path>
                            <path d="M63.5,0.8 C63.1,0.8 62.7,1.1 62.7,1.6 L62.7,2.6 C62.7,3 63,3.4 63.5,3.4 C64,3.4 64.3,3.1 64.3,2.6 L64.3,1.6 C64.3,1.1 63.9,0.8 63.5,0.8 Z" id="Path"></path>
                            <path d="M62.5,56.8 L61.2,56.8 L61.2,55.5 C61.2,55.1 60.9,54.7 60.4,54.7 C59.9,54.7 59.6,55 59.6,55.5 L59.6,56.8 L58.3,56.8 C57.9,56.8 57.5,57.1 57.5,57.6 C57.5,58.1 57.8,58.4 58.3,58.4 L59.6,58.4 L59.6,59.7 C59.6,60.1 59.9,60.5 60.4,60.5 C60.9,60.5 61.2,60.2 61.2,59.7 L61.2,58.4 L62.5,58.4 C62.9,58.4 63.3,58.1 63.3,57.6 C63.3,57.1 62.9,56.8 62.5,56.8 Z" id="Path"></path>
                            <path d="M5.5,9.3 C5.9,9.3 6.3,9 6.3,8.5 C6.3,8 5.9,7.8 5.5,7.8 L4.3,7.8 L4.3,6.5 C4.3,6.1 4,5.7 3.5,5.7 C3,5.7 2.8,6.1 2.8,6.5 L2.8,7.8 L1.5,7.8 C1.1,7.8 0.7,8.1 0.7,8.6 C0.7,9.1 1,9.4 1.5,9.4 L2.8,9.4 L2.8,10.7 C2.8,11.1 3.1,11.5 3.6,11.5 C4.1,11.5 4.4,11.2 4.4,10.7 L4.4,9.3 L5.5,9.3 Z" id="Path"></path>
                            <path d="M51.5,36.8 L51,36.8 C51.8,35.4 52.3,33.7 52.3,32.6 C52.3,30 50.1,27.8 47.5,27.8 C44.9,27.8 42.7,30 42.7,32.6 C42.7,33.7 43.2,35.4 44,36.8 L43.5,36.8 C42.5,36.8 41.6,37.1 40.8,37.6 C40.1,35.9 38.4,34.8 36.5,34.8 L36,34.8 C36.8,33.4 37.3,31.7 37.3,30.6 C37.3,28 35.1,25.8 32.5,25.8 C29.9,25.8 27.7,28 27.7,30.6 C27.7,31.7 28.2,33.4 29,34.8 L28.5,34.8 C26.6,34.8 24.9,36 24.2,37.6 C23.4,37.1 22.5,36.8 21.5,36.8 L21,36.8 C21.8,35.4 22.3,33.7 22.3,32.6 C22.3,30 20.1,27.8 17.5,27.8 C14.9,27.8 12.7,30 12.7,32.6 C12.7,33.7 13.2,35.4 14,36.8 L13.5,36.8 C10.9,36.8 8.7,38.9 8.7,41.6 L8.7,52.6 C8.7,53 9,53.4 9.5,53.4 L12.7,53.4 L12.7,63.7 C12.7,64.1 13,64.5 13.5,64.5 L21.6,64.5 C22,64.5 22.4,64.2 22.4,63.7 L22.4,43.7 C22.4,43.3 22.1,42.9 21.6,42.9 C21.1,42.9 20.8,43.2 20.8,43.7 L20.8,63 L18.2,63 L18.2,50.5 C18.2,50.1 17.9,49.7 17.4,49.7 C16.9,49.7 16.6,50 16.6,50.5 L16.6,62.8 L14,62.8 L14,43.5 C14,43.1 13.7,42.7 13.2,42.7 C12.7,42.7 12.4,43 12.4,43.5 L12.4,51.8 L10,51.8 L10,41.5 C10,39.7 11.5,38.2 13.3,38.2 L14.9,38.2 C15.6,38.9 16.4,39.3 17.3,39.3 C18.2,39.3 19,38.9 19.7,38.2 L21.3,38.2 C22.2,38.2 23,38.6 23.6,39.2 C23.6,39.3 23.6,39.4 23.6,39.5 L23.6,49.5 C23.6,49.9 23.9,50.3 24.4,50.3 L27.6,50.3 L27.6,62.6 C27.6,63 27.9,63.4 28.4,63.4 L36.5,63.4 C36.9,63.4 37.3,63.1 37.3,62.6 L37.3,50.3 L40.5,50.3 C40.9,50.3 41.3,50 41.3,49.5 L41.3,39.5 C41.3,39.4 41.3,39.3 41.3,39.2 C41.9,38.6 42.7,38.2 43.6,38.2 L45.2,38.2 C45.9,38.9 46.7,39.3 47.6,39.3 C48.5,39.3 49.3,38.9 50,38.2 L51.6,38.2 C53.4,38.2 54.9,39.7 54.9,41.5 L54.9,51.8 L52.5,51.8 L52.5,43.5 C52.5,43.1 52.2,42.7 51.7,42.7 C51.2,42.7 50.9,43 50.9,43.5 L50.9,62.8 L48.3,62.8 L48.3,50.5 C48.3,50.1 48,49.7 47.5,49.7 C47,49.7 46.7,50 46.7,50.5 L46.7,62.8 L44.1,62.8 L44.1,43.5 C44.1,43.1 43.8,42.7 43.3,42.7 C42.8,42.7 42.5,43 42.5,43.5 L42.5,63.5 C42.5,63.9 42.8,64.3 43.3,64.3 L51.4,64.3 C51.8,64.3 52.2,64 52.2,63.5 L52.2,53.3 L55.4,53.3 C55.8,53.3 56.2,53 56.2,52.5 L56.2,41.5 C56.3,38.9 54.1,36.8 51.5,36.8 Z M17.5,29.3 C19.3,29.3 20.8,30.8 20.8,32.6 C20.8,33.9 20,35.9 19,37 C19,37 19,37 19,37 C18.7,37.3 18.4,37.6 18,37.8 C18,37.8 18,37.8 17.9,37.8 C17.8,37.8 17.6,37.9 17.5,37.9 C17.4,37.9 17.2,37.9 17.1,37.8 C17.1,37.8 17.1,37.8 17,37.8 C16.6,37.6 16.2,37.3 16,37 C16,37 16,37 16,37 C15,35.9 14.2,33.9 14.2,32.6 C14.2,30.7 15.7,29.3 17.5,29.3 Z M32.5,27.3 C34.3,27.3 35.8,28.8 35.8,30.6 C35.8,31.9 35,33.9 34,35 C34,35 34,35 34,35 C33.7,35.3 33.4,35.6 33,35.8 C33,35.8 33,35.8 32.9,35.8 C32.8,35.8 32.6,35.9 32.5,35.9 C32.4,35.9 32.2,35.9 32.1,35.8 C32.1,35.8 32.1,35.8 32,35.8 C31.6,35.6 31.2,35.3 31,35 C31,35 31,35 31,35 C30,33.9 29.2,31.9 29.2,30.6 C29.2,28.7 30.7,27.3 32.5,27.3 Z M39.8,48.8 L37.4,48.8 L37.4,43.5 C37.4,43.1 37.1,42.7 36.6,42.7 C36.1,42.7 35.8,43 35.8,43.5 L35.8,61.8 L33.2,61.8 L33.2,48.5 C33.2,48.1 32.9,47.7 32.4,47.7 C31.9,47.7 31.6,48 31.6,48.5 L31.6,61.8 L29,61.8 L29,43.5 C29,43.1 28.7,42.7 28.2,42.7 C27.7,42.7 27.4,43 27.4,43.5 L27.4,48.8 L25,48.8 L25,39.5 C25,37.7 26.5,36.2 28.3,36.2 L29.9,36.2 C30.6,36.9 31.4,37.3 32.3,37.3 C33.2,37.3 34,36.9 34.7,36.2 L36.3,36.2 C38.1,36.2 39.6,37.7 39.6,39.5 L39.6,48.8 L39.8,48.8 Z M47.5,29.3 C49.3,29.3 50.8,30.8 50.8,32.6 C50.8,33.9 50,35.9 49,37 C49,37 49,37 49,37 C48.7,37.3 48.4,37.6 48,37.8 C48,37.8 48,37.8 47.9,37.8 C47.8,37.8 47.6,37.9 47.5,37.9 C47.4,37.9 47.2,37.9 47.1,37.8 C47.1,37.8 47.1,37.8 47,37.8 C46.6,37.6 46.2,37.3 46,37 C46,37 46,37 46,37 C45,35.9 44.2,33.9 44.2,32.6 C44.2,30.7 45.7,29.3 47.5,29.3 Z" id="Shape" fill-rule="nonzero"></path>
                            <path d="M58.8,37.3 C59.7,34.5 60.2,31.5 60.2,28.5 C60.2,13.2 47.8,0.7 32.4,0.7 C17,0.7 4.8,13.2 4.8,28.5 C4.8,31.5 5.3,34.4 6.2,37.3 C6.3,37.6 6.6,37.8 6.9,37.8 C7,37.8 7.1,37.8 7.1,37.8 C7.5,37.7 7.7,37.2 7.6,36.9 C6.7,34.2 6.3,31.4 6.3,28.6 C6.3,24.2 7.4,20 9.3,16.3 L18.9,16.3 C18.2,18.8 17.8,21.6 17.5,24.5 C17.5,24.9 17.8,25.3 18.2,25.3 C18.6,25.3 19,25 19,24.6 C19.2,21.6 19.7,18.8 20.5,16.2 L31.8,16.2 L31.8,22.5 C31.8,22.9 32.1,23.3 32.6,23.3 C33.1,23.3 33.4,23 33.4,22.5 L33.4,16.2 L44.7,16.2 C45.4,18.8 45.9,21.6 46.2,24.6 C46.2,25 46.6,25.3 46.9,25.3 C46.9,25.3 46.9,25.3 47,25.3 C47.4,25.3 47.7,24.9 47.7,24.5 C47.5,21.6 47,18.8 46.3,16.3 L55.9,16.3 C57.8,20 58.9,24.1 58.9,28.6 C58.9,31.4 58.4,34.2 57.6,36.9 C57.5,37.3 57.7,37.7 58.1,37.8 C58.3,37.9 58.7,37.7 58.8,37.3 Z M10.2,14.8 C13.8,8.9 19.7,4.6 26.6,3 C23.5,5.4 21,9.5 19.4,14.8 L10.2,14.8 Z M20.9,14.8 C23.2,7.7 27.2,2.9 31.7,2.4 L31.7,14.8 L20.9,14.8 Z M33.3,14.8 L33.3,2.3 C37.8,2.8 41.8,7.6 44.1,14.7 L33.3,14.7 L33.3,14.8 Z M45.7,14.8 C44.1,9.5 41.5,5.4 38.5,3 C45.4,4.6 51.3,8.9 54.9,14.8 L45.7,14.8 Z" id="Shape" fill-rule="nonzero"></path>
                        </g>
                    </g>
                </g>
            </g>
        </g>
    </g>
</svg>