<?xml version="1.0" ?><svg viewBox="0 0 24 24" xmlns="http://www.w3.org/2000/svg"><title/><g id="Firefox"><g data-name="&lt;Group&gt;" id="_Group_"><path d="M3.18,4.62A11.49,11.49,0,0,1,16.59,1.46" data-name="&lt;Path&gt;" id="_Path_" style="fill:none;stroke:#303c42;stroke-linecap:round;stroke-linejoin:round"/><path d="M23.5,12A11.5,11.5,0,1,1,2,6.38,3.09,3.09,0,0,1,2.5,2.5a5.58,5.58,0,0,0,.68,2.12c.29.54.6.93.82.88a8.79,8.79,0,0,1,2.5,0c.41-.53,1.41-2,3-2-.89.89-3.44,4,1,4h1l-3,2s.34.66,0,1c-.38-.38-2,.41-2,1.5s1.16,2.5,3.5,2.5,1.75-1,3-1a1.45,1.45,0,0,1,1.5,1c-1.72,0-3,2-5,2a4.27,4.27,0,0,0,3,1,6,6,0,0,0,4.82-9.57,6,6,0,0,1,2.4,4.29A8.94,8.94,0,0,0,20,10c0-3-1.2-7-3.41-8.54A11.48,11.48,0,0,1,23.5,12Z" data-name="&lt;Path&gt;" id="_Path_2" style="fill:none;stroke:#303c42;stroke-linecap:round;stroke-linejoin:round"/></g></g></svg>