<?xml version="1.0" encoding="UTF-8"?>
<svg width="54px" height="54px" viewBox="0 0 54 54" version="1.1" xmlns="http://www.w3.org/2000/svg" xmlns:xlink="http://www.w3.org/1999/xlink">
    <!-- Generator: Sketch 51.3 (57544) - http://www.bohemiancoding.com/sketch -->
    <title>Users SVG File Copy</title>
    <desc>Created with Sketch.</desc>
    <defs></defs>
    <g id="Admin" stroke="none" stroke-width="1" fill="none" fill-rule="evenodd">
        <g id="Admin-Admin-Console" transform="translate(-333.000000, -280.000000)" fill="#000000" fill-rule="nonzero">
            <g id="Users" transform="translate(297.000000, 277.000000)">
                <g id="Users-SVG-File-Copy" transform="translate(36.000000, 2.000000)">
                    <g id="Group" transform="translate(0.000000, 0.637820)">
                        <path d="M27,0.36218 C18.837574,0.36218 12.40625,8.35446 12.40625,17.95593 C12.40625,24.13313 14.736949,29.66158 18.78125,32.86218 C7.778809,35.48798 -3.55271368e-15,43.49178 -3.55271368e-15,53.36218 C5.52179053e-05,53.9144419 0.447738124,54.3621248 1,54.36218 L53,54.36218 C53.5522619,54.3621248 53.9999448,53.9144419 54,53.36218 C54,43.49178 46.221191,35.48798 35.21875,32.86218 C39.263051,29.66158 41.59375,24.13313 41.59375,17.95593 C41.59375,8.35446 35.162426,0.36218 27,0.36218 Z M27,2.36218 C33.840802,2.36218 39.59375,9.24142 39.59375,17.95593 C39.59375,24.47573 36.888388,30.15768 32.53125,32.48718 C32.1480267,32.6874845 31.9369391,33.1113947 32.0080275,33.5379254 C32.079116,33.9644561 32.4162778,34.2969914 32.84375,34.36218 C43.812412,36.22078 51.366327,43.44518 51.90625,52.36218 L2.09375,52.36218 C2.633673,43.44518 10.187588,36.22078 21.15625,34.36218 C21.5837222,34.2969914 21.920884,33.9644561 21.9919725,33.5379254 C22.0630609,33.1113947 21.8519733,32.6874845 21.46875,32.48718 C17.111612,30.15768 14.40625,24.47573 14.40625,17.95593 C14.40625,9.24142 20.159198,2.36218 27,2.36218 Z" id="Shape"></path>
                    </g>
                </g>
            </g>
        </g>
    </g>
</svg>