<?xml version="1.0" encoding="UTF-8"?>
<svg width="56px" height="66px" viewBox="0 0 56 66" version="1.1" xmlns="http://www.w3.org/2000/svg" xmlns:xlink="http://www.w3.org/1999/xlink">
    <!-- Generator: Sketch 51.3 (57544) - http://www.bohemiancoding.com/sketch -->
    <title>Profile SVG File</title>
    <desc>Created with Sketch.</desc>
    <defs></defs>
    <g id="Admin" stroke="none" stroke-width="1" fill="none" fill-rule="evenodd">
        <g id="Admin-Admin-Console" transform="translate(-573.000000, -274.000000)" fill="#000000" fill-rule="nonzero">
            <g id="Profile-SVG-File" transform="translate(573.000000, 274.000000)">
                <g id="Group">
                    <path d="M54.5,7.1 L47.8,7.1 L47.8,1.5 C47.8,0.9 47.4,0.5 46.8,0.5 L1.5,0.5 C0.9,0.5 0.5,0.9 0.5,1.5 L0.5,55.8 C0.5,56.4 0.9,56.8 1.5,56.8 L7.2,56.8 L7.2,64.5 C7.2,65.1 7.6,65.5 8.2,65.5 L54.6,65.5 C55.2,65.5 55.6,65.1 55.6,64.5 L55.6,8.1 C55.5,7.6 55.1,7.1 54.5,7.1 Z M7.2,54.8 L2.5,54.8 L2.5,2.5 L45.8,2.5 L45.8,7.1 L8.2,7.1 C7.6,7.1 7.2,7.5 7.2,8.1 L7.2,54.8 Z M53.5,63.5 L9.2,63.5 L9.2,9.1 L53.6,9.1 L53.6,63.5 L53.5,63.5 Z" id="Shape"></path>
                    <path d="M21.4,48.6 C23.2,48.6 24.6,47.1 24.6,45.4 C24.6,43.7 23.1,42.2 21.4,42.2 C19.7,42.2 18.2,43.7 18.2,45.4 C18.2,47.1 19.6,48.6 21.4,48.6 Z M21.4,44.1 C22.1,44.1 22.6,44.7 22.6,45.3 C22.6,46 22,46.5 21.4,46.5 C20.7,46.5 20.2,45.9 20.2,45.3 C20.2,44.6 20.7,44.1 21.4,44.1 Z" id="Shape"></path>
                    <path d="M21.4,49.5 C18.1,49.5 15.5,52.2 15.5,55.4 C15.5,56 15.9,56.4 16.5,56.4 C17.1,56.4 17.5,56 17.5,55.4 C17.5,53.2 19.3,51.5 21.4,51.5 C23.6,51.5 25.3,53.3 25.3,55.4 C25.3,56 25.7,56.4 26.3,56.4 C26.9,56.4 27.3,56 27.3,55.4 C27.3,52.2 24.7,49.5 21.4,49.5 Z" id="Shape"></path>
                    <path d="M13.1,59.2 L29.6,59.2 C30.2,59.2 30.6,58.8 30.6,58.2 L30.6,40.2 C30.6,39.6 30.2,39.2 29.6,39.2 L13.1,39.2 C12.5,39.2 12.1,39.6 12.1,40.2 L12.1,58.2 C12.1,58.8 12.6,59.2 13.1,59.2 Z M14.1,41.3 L28.6,41.3 L28.6,57.3 L14.1,57.3 L14.1,41.3 Z" id="Shape"></path>
                    <path d="M35.6,42.4 L49.5,42.4 C50.1,42.4 50.5,42 50.5,41.4 C50.5,40.8 50.1,40.4 49.5,40.4 L35.6,40.4 C35,40.4 34.6,40.8 34.6,41.4 C34.6,41.9 35,42.4 35.6,42.4 Z" id="Shape"></path>
                    <path d="M35.6,50.3 L49.5,50.3 C50.1,50.3 50.5,49.9 50.5,49.3 C50.5,48.7 50.1,48.3 49.5,48.3 L35.6,48.3 C35,48.3 34.6,48.7 34.6,49.3 C34.6,49.8 35,50.3 35.6,50.3 Z" id="Shape"></path>
                    <path d="M35.6,58.2 L49.5,58.2 C50.1,58.2 50.5,57.8 50.5,57.2 C50.5,56.6 50.1,56.2 49.5,56.2 L35.6,56.2 C35,56.2 34.6,56.6 34.6,57.2 C34.6,57.7 35,58.2 35.6,58.2 Z" id="Shape"></path>
                    <path d="M21.4,22.7 C23.2,22.7 24.6,21.2 24.6,19.5 C24.6,17.8 23.1,16.3 21.4,16.3 C19.7,16.3 18.2,17.8 18.2,19.5 C18.2,21.2 19.6,22.7 21.4,22.7 Z M21.4,18.2 C22.1,18.2 22.6,18.8 22.6,19.4 C22.6,20.1 22,20.6 21.4,20.6 C20.7,20.6 20.2,20 20.2,19.4 C20.2,18.7 20.7,18.2 21.4,18.2 Z" id="Shape"></path>
                    <path d="M21.4,23.6 C18.1,23.6 15.5,26.3 15.5,29.5 C15.5,30.1 15.9,30.5 16.5,30.5 C17.1,30.5 17.5,30.1 17.5,29.5 C17.5,27.3 19.3,25.6 21.4,25.6 C23.6,25.6 25.3,27.4 25.3,29.5 C25.3,30.1 25.7,30.5 26.3,30.5 C26.9,30.5 27.3,30.1 27.3,29.5 C27.3,26.3 24.7,23.6 21.4,23.6 Z" id="Shape"></path>
                    <path d="M13.1,33.3 L29.6,33.3 C30.2,33.3 30.6,32.9 30.6,32.3 L30.6,14.3 C30.6,13.7 30.2,13.3 29.6,13.3 L13.1,13.3 C12.5,13.3 12.1,13.7 12.1,14.3 L12.1,32.3 C12.1,32.9 12.6,33.3 13.1,33.3 Z M14.1,15.4 L28.6,15.4 L28.6,31.4 L14.1,31.4 L14.1,15.4 Z" id="Shape"></path>
                    <path d="M35.6,16.5 L49.5,16.5 C50.1,16.5 50.5,16.1 50.5,15.5 C50.5,14.9 50.1,14.5 49.5,14.5 L35.6,14.5 C35,14.5 34.6,14.9 34.6,15.5 C34.6,16 35,16.5 35.6,16.5 Z" id="Shape"></path>
                    <path d="M35.6,24.4 L49.5,24.4 C50.1,24.4 50.5,24 50.5,23.4 C50.5,22.8 50.1,22.4 49.5,22.4 L35.6,22.4 C35,22.4 34.6,22.8 34.6,23.4 C34.6,23.9 35,24.4 35.6,24.4 Z" id="Shape"></path>
                    <path d="M35.6,32.3 L49.5,32.3 C50.1,32.3 50.5,31.9 50.5,31.3 C50.5,30.7 50.1,30.3 49.5,30.3 L35.6,30.3 C35,30.3 34.6,30.7 34.6,31.3 C34.6,31.8 35,32.3 35.6,32.3 Z" id="Shape"></path>
                </g>
            </g>
        </g>
    </g>
</svg>